<svg width="690.0" height="2296.0" viewBox="0 0 690.0 2296.0" xmlns="http://www.w3.org/2000/svg">
<style>/* font and background color specifications */
svg {
    font-family: SFMono-Regular,Consolas,Liberation Mono,Menlo,monospace;
    font-size: 14px;
    font-kerning: normal;
    text-rendering: optimizeLegibility;
    fill: #24292e;
}

/* default key styling */
rect {
    fill: #f6f8fa;
    stroke: #d6d8da;
    stroke-width: 1;
}

/* color accent for held keys */
.held {
    fill: #fdd;
}

/* color accent for combo boxes */
.combo {
    fill: #cdf;
}

/* color accent for ghost (optional) keys */
.ghost {
    fill: #ddd;
}

text {
    text-anchor: middle;
    dominant-baseline: middle;
}

/* styling for layer labels */
.label {
    font-weight: bold;
    text-anchor: start;
    stroke: white;
    stroke-width: 2;
    paint-order: stroke;
}

/* styling for combo box and hold-tap hold label text */
.small {
    font-size: 11px;
}

/* styling for hold-tap hold label text in combo box */
.smaller {
    font-size: 8px;
}

/* styling for combo dendrons */
path {
    stroke-width: 1;
    stroke: gray;
    fill: none;
}
</style>
<text x="30.0" y="28.0" class="label">DEF:</text>
<rect rx="6.0" ry="6.0" x="32.0" y="58.0" width="56.0" height="52.0"/>
<text x="60.0" y="84.0">Q</text>
<rect rx="6.0" ry="6.0" x="92.0" y="58.0" width="56.0" height="52.0"/>
<text x="120.0" y="84.0">W</text>
<rect rx="6.0" ry="6.0" x="152.0" y="58.0" width="56.0" height="52.0"/>
<text x="180.0" y="84.0">F</text>
<rect rx="6.0" ry="6.0" x="212.0" y="58.0" width="56.0" height="52.0"/>
<text x="240.0" y="84.0">P</text>
<rect rx="6.0" ry="6.0" x="272.0" y="58.0" width="56.0" height="52.0"/>
<text x="300.0" y="84.0">G</text>
<rect rx="6.0" ry="6.0" x="362.0" y="58.0" width="56.0" height="52.0"/>
<text x="390.0" y="84.0">J</text>
<rect rx="6.0" ry="6.0" x="422.0" y="58.0" width="56.0" height="52.0"/>
<text x="450.0" y="84.0">L</text>
<rect rx="6.0" ry="6.0" x="482.0" y="58.0" width="56.0" height="52.0"/>
<text x="510.0" y="84.0">U</text>
<rect rx="6.0" ry="6.0" x="542.0" y="58.0" width="56.0" height="52.0"/>
<text x="570.0" y="84.0">Y</text>
<rect rx="6.0" ry="6.0" x="602.0" y="58.0" width="56.0" height="52.0"/>
<text x="630.0" y="84.0">;</text>
<rect rx="6.0" ry="6.0" x="32.0" y="114.0" width="56.0" height="52.0"/>
<text x="60.0" y="140.0">A</text>
<text x="60.0" y="159.0" class="small">LCTL</text>
<rect rx="6.0" ry="6.0" x="92.0" y="114.0" width="56.0" height="52.0"/>
<text x="120.0" y="140.0">R</text>
<text x="120.0" y="159.0" class="small">LALT</text>
<rect rx="6.0" ry="6.0" x="152.0" y="114.0" width="56.0" height="52.0"/>
<text x="180.0" y="140.0">S</text>
<text x="180.0" y="159.0" class="small">LSFT</text>
<rect rx="6.0" ry="6.0" x="212.0" y="114.0" width="56.0" height="52.0"/>
<text x="240.0" y="140.0">T</text>
<text x="240.0" y="159.0" class="small">LGUI</text>
<rect rx="6.0" ry="6.0" x="272.0" y="114.0" width="56.0" height="52.0"/>
<text x="300.0" y="140.0">D</text>
<rect rx="6.0" ry="6.0" x="362.0" y="114.0" width="56.0" height="52.0"/>
<text x="390.0" y="140.0">H</text>
<rect rx="6.0" ry="6.0" x="422.0" y="114.0" width="56.0" height="52.0"/>
<text x="450.0" y="140.0">N</text>
<text x="450.0" y="159.0" class="small">RGUI</text>
<rect rx="6.0" ry="6.0" x="482.0" y="114.0" width="56.0" height="52.0"/>
<text x="510.0" y="140.0">E</text>
<text x="510.0" y="159.0" class="small">RSFT</text>
<rect rx="6.0" ry="6.0" x="542.0" y="114.0" width="56.0" height="52.0"/>
<text x="570.0" y="140.0">I</text>
<text x="570.0" y="159.0" class="small">LALT</text>
<rect rx="6.0" ry="6.0" x="602.0" y="114.0" width="56.0" height="52.0"/>
<text x="630.0" y="140.0">O</text>
<text x="630.0" y="159.0" class="small">RCTL</text>
<rect rx="6.0" ry="6.0" x="32.0" y="170.0" width="56.0" height="52.0"/>
<text x="60.0" y="196.0">Z</text>
<rect rx="6.0" ry="6.0" x="92.0" y="170.0" width="56.0" height="52.0"/>
<text x="120.0" y="196.0">X</text>
<rect rx="6.0" ry="6.0" x="152.0" y="170.0" width="56.0" height="52.0"/>
<text x="180.0" y="196.0">C</text>
<rect rx="6.0" ry="6.0" x="212.0" y="170.0" width="56.0" height="52.0"/>
<text x="240.0" y="196.0">V</text>
<rect rx="6.0" ry="6.0" x="272.0" y="170.0" width="56.0" height="52.0"/>
<text x="300.0" y="196.0">B</text>
<rect rx="6.0" ry="6.0" x="362.0" y="170.0" width="56.0" height="52.0"/>
<text x="390.0" y="196.0">K</text>
<rect rx="6.0" ry="6.0" x="422.0" y="170.0" width="56.0" height="52.0"/>
<text x="450.0" y="196.0">M</text>
<rect rx="6.0" ry="6.0" x="482.0" y="170.0" width="56.0" height="52.0"/>
<text x="510.0" y="196.0">,</text>
<rect rx="6.0" ry="6.0" x="542.0" y="170.0" width="56.0" height="52.0"/>
<text x="570.0" y="196.0">.</text>
<rect rx="6.0" ry="6.0" x="602.0" y="170.0" width="56.0" height="52.0"/>
<text x="630.0" y="196.0">/</text>
<rect rx="6.0" ry="6.0" x="152.0" y="226.0" width="56.0" height="52.0"/>
<text x="180.0" y="252.0">ESC</text>
<text x="180.0" y="271.0" class="small">MOU</text>
<rect rx="6.0" ry="6.0" x="212.0" y="226.0" width="56.0" height="52.0"/>
<text x="240.0" y="252.0">BSPC</text>
<text x="240.0" y="271.0" class="small">NAV</text>
<rect rx="6.0" ry="6.0" x="272.0" y="226.0" width="56.0" height="52.0"/>
<text x="300.0" y="252.0">TAB</text>
<text x="300.0" y="271.0" class="small">NUM</text>
<rect rx="6.0" ry="6.0" x="362.0" y="226.0" width="56.0" height="52.0"/>
<text x="390.0" y="252.0">ENT</text>
<text x="390.0" y="271.0" class="small">RSFT</text>
<rect rx="6.0" ry="6.0" x="422.0" y="226.0" width="56.0" height="52.0"/>
<text x="450.0" y="252.0">SPC</text>
<text x="450.0" y="271.0" class="small">SYM</text>
<rect rx="6.0" ry="6.0" x="482.0" y="226.0" width="56.0" height="52.0"/>
<text x="510.0" y="252.0">IDE</text>
<text x="510.0" y="271.0" class="small">sticky</text>
<rect rx="6.0" ry="6.0" x="136.0" y="71.0" width="28.0" height="26.0" class="combo"/>
<text x="150.0" y="84.0" class="small">Hyper</text>
<rect rx="6.0" ry="6.0" x="526.0" y="71.0" width="28.0" height="26.0" class="combo"/>
<text x="540.0" y="84.0" class="small">Meh</text>
<path d="M345.0,55.0 h-159.0 a6.0,6.0 0 0 0 -6.0,6.0 v4.333333333333332"/>
<path d="M345.0,55.0 h159.0 a6.0,6.0 0 0 1 6.0,6.0 v4.333333333333332"/>
<rect rx="6.0" ry="6.0" x="331.0" y="42.0" width="28.0" height="26.0" class="combo"/>
<text x="345.0" y="55.0" class="small">
<tspan x="345.0" dy="-0.6em">Caps</tspan><tspan x="345.0" dy="1.2em">Wrd</tspan></text>
<path d="M345.0,111.0 h-39.0 a6.0,6.0 0 0 0 -6.0,6.0 v4.333333333333332"/>
<path d="M345.0,111.0 h39.0 a6.0,6.0 0 0 1 6.0,6.0 v4.333333333333332"/>
<rect rx="6.0" ry="6.0" x="331.0" y="98.0" width="28.0" height="26.0" class="combo"/>
<text x="345.0" y="111.0" class="small">Alfred</text>
<path d="M345.0,167.0 h-99.0 a6.0,6.0 0 0 0 -6.0,6.0 v4.333333333333332"/>
<path d="M345.0,167.0 h99.0 a6.0,6.0 0 0 1 6.0,6.0 v4.333333333333332"/>
<rect rx="6.0" ry="6.0" x="331.0" y="154.0" width="28.0" height="26.0" class="combo"/>
<text x="345.0" y="167.0" class="small">Alfred</text>
<text x="30.0" y="308.0" class="label">SYM:</text>
<rect rx="6.0" ry="6.0" x="32.0" y="338.0" width="56.0" height="52.0"/>
<text x="60.0" y="364.0">!</text>
<rect rx="6.0" ry="6.0" x="92.0" y="338.0" width="56.0" height="52.0"/>
<text x="120.0" y="364.0">@</text>
<rect rx="6.0" ry="6.0" x="152.0" y="338.0" width="56.0" height="52.0"/>
<text x="180.0" y="364.0">#</text>
<rect rx="6.0" ry="6.0" x="212.0" y="338.0" width="56.0" height="52.0"/>
<text x="240.0" y="364.0">$</text>
<rect rx="6.0" ry="6.0" x="272.0" y="338.0" width="56.0" height="52.0"/>
<text x="300.0" y="364.0">%</text>
<rect rx="6.0" ry="6.0" x="362.0" y="338.0" width="56.0" height="52.0"/>
<text x="390.0" y="364.0">^</text>
<rect rx="6.0" ry="6.0" x="422.0" y="338.0" width="56.0" height="52.0"/>
<text x="450.0" y="364.0">&amp;</text>
<rect rx="6.0" ry="6.0" x="482.0" y="338.0" width="56.0" height="52.0"/>
<text x="510.0" y="364.0">*</text>
<rect rx="6.0" ry="6.0" x="542.0" y="338.0" width="56.0" height="52.0"/>
<text x="570.0" y="364.0">&quot;</text>
<rect rx="6.0" ry="6.0" x="602.0" y="338.0" width="56.0" height="52.0"/>
<text x="630.0" y="364.0">&#x27;</text>
<rect rx="6.0" ry="6.0" x="32.0" y="394.0" width="56.0" height="52.0"/>
<text x="60.0" y="420.0">+</text>
<rect rx="6.0" ry="6.0" x="92.0" y="394.0" width="56.0" height="52.0"/>
<text x="120.0" y="420.0">_</text>
<rect rx="6.0" ry="6.0" x="152.0" y="394.0" width="56.0" height="52.0"/>
<text x="180.0" y="420.0">=</text>
<rect rx="6.0" ry="6.0" x="212.0" y="394.0" width="56.0" height="52.0"/>
<text x="240.0" y="420.0">-</text>
<rect rx="6.0" ry="6.0" x="272.0" y="394.0" width="56.0" height="52.0"/>
<text x="300.0" y="420.0">`</text>
<rect rx="6.0" ry="6.0" x="362.0" y="394.0" width="56.0" height="52.0"/>
<text x="390.0" y="420.0">|</text>
<rect rx="6.0" ry="6.0" x="422.0" y="394.0" width="56.0" height="52.0"/>
<text x="450.0" y="420.0">LGUI</text>
<text x="450.0" y="439.0" class="small">sticky</text>
<rect rx="6.0" ry="6.0" x="482.0" y="394.0" width="56.0" height="52.0"/>
<text x="510.0" y="420.0">LSFT</text>
<text x="510.0" y="439.0" class="small">sticky</text>
<rect rx="6.0" ry="6.0" x="542.0" y="394.0" width="56.0" height="52.0"/>
<text x="570.0" y="420.0">LALT</text>
<text x="570.0" y="439.0" class="small">sticky</text>
<rect rx="6.0" ry="6.0" x="602.0" y="394.0" width="56.0" height="52.0"/>
<text x="630.0" y="420.0">LCTL</text>
<text x="630.0" y="439.0" class="small">sticky</text>
<rect rx="6.0" ry="6.0" x="32.0" y="450.0" width="56.0" height="52.0"/>
<text x="60.0" y="476.0">&lt;</text>
<rect rx="6.0" ry="6.0" x="92.0" y="450.0" width="56.0" height="52.0"/>
<text x="120.0" y="476.0">[</text>
<rect rx="6.0" ry="6.0" x="152.0" y="450.0" width="56.0" height="52.0"/>
<text x="180.0" y="476.0">{</text>
<rect rx="6.0" ry="6.0" x="212.0" y="450.0" width="56.0" height="52.0"/>
<text x="240.0" y="476.0">(</text>
<rect rx="6.0" ry="6.0" x="272.0" y="450.0" width="56.0" height="52.0"/>
<text x="300.0" y="476.0">~</text>
<rect rx="6.0" ry="6.0" x="362.0" y="450.0" width="56.0" height="52.0"/>
<text x="390.0" y="476.0">\</text>
<rect rx="6.0" ry="6.0" x="422.0" y="450.0" width="56.0" height="52.0"/>
<text x="450.0" y="476.0">)</text>
<rect rx="6.0" ry="6.0" x="482.0" y="450.0" width="56.0" height="52.0"/>
<text x="510.0" y="476.0">}</text>
<rect rx="6.0" ry="6.0" x="542.0" y="450.0" width="56.0" height="52.0"/>
<text x="570.0" y="476.0">]</text>
<rect rx="6.0" ry="6.0" x="602.0" y="450.0" width="56.0" height="52.0"/>
<text x="630.0" y="476.0">&gt;</text>
<rect rx="6.0" ry="6.0" x="152.0" y="506.0" width="56.0" height="52.0"/>
<rect rx="6.0" ry="6.0" x="212.0" y="506.0" width="56.0" height="52.0"/>
<text x="240.0" y="532.0">ESC</text>
<rect rx="6.0" ry="6.0" x="272.0" y="506.0" width="56.0" height="52.0"/>
<text x="300.0" y="532.0">:</text>
<rect rx="6.0" ry="6.0" x="362.0" y="506.0" width="56.0" height="52.0"/>
<rect rx="6.0" ry="6.0" x="422.0" y="506.0" width="56.0" height="52.0" class="held"/>
<rect rx="6.0" ry="6.0" x="482.0" y="506.0" width="56.0" height="52.0"/>
<text x="510.0" y="532.0">MED</text>
<text x="30.0" y="588.0" class="label">NAV:</text>
<rect rx="6.0" ry="6.0" x="32.0" y="618.0" width="56.0" height="52.0"/>
<rect rx="6.0" ry="6.0" x="92.0" y="618.0" width="56.0" height="52.0"/>
<rect rx="6.0" ry="6.0" x="152.0" y="618.0" width="56.0" height="52.0"/>
<rect rx="6.0" ry="6.0" x="212.0" y="618.0" width="56.0" height="52.0"/>
<rect rx="6.0" ry="6.0" x="272.0" y="618.0" width="56.0" height="52.0"/>
<rect rx="6.0" ry="6.0" x="362.0" y="618.0" width="56.0" height="52.0"/>
<text x="390.0" y="644.0">
<tspan x="390.0" dy="-0.6em">APP</tspan><tspan x="390.0" dy="1.2em">WIN</tspan></text>
<rect rx="6.0" ry="6.0" x="422.0" y="618.0" width="56.0" height="52.0"/>
<text x="450.0" y="644.0">
<tspan x="450.0" dy="-0.6em">HIST</tspan><tspan x="450.0" dy="1.2em">BK</tspan></text>
<rect rx="6.0" ry="6.0" x="482.0" y="618.0" width="56.0" height="52.0"/>
<text x="510.0" y="644.0">
<tspan x="510.0" dy="-0.6em">TAB</tspan><tspan x="510.0" dy="1.2em">LT</tspan></text>
<rect rx="6.0" ry="6.0" x="542.0" y="618.0" width="56.0" height="52.0"/>
<text x="570.0" y="644.0">
<tspan x="570.0" dy="-0.6em">TAB</tspan><tspan x="570.0" dy="1.2em">RT</tspan></text>
<rect rx="6.0" ry="6.0" x="602.0" y="618.0" width="56.0" height="52.0"/>
<text x="630.0" y="644.0">
<tspan x="630.0" dy="-0.6em">HIST</tspan><tspan x="630.0" dy="1.2em">FW</tspan></text>
<rect rx="6.0" ry="6.0" x="32.0" y="674.0" width="56.0" height="52.0"/>
<text x="60.0" y="700.0">LCTL</text>
<text x="60.0" y="719.0" class="small">sticky</text>
<rect rx="6.0" ry="6.0" x="92.0" y="674.0" width="56.0" height="52.0"/>
<text x="120.0" y="700.0">LALT</text>
<text x="120.0" y="719.0" class="small">sticky</text>
<rect rx="6.0" ry="6.0" x="152.0" y="674.0" width="56.0" height="52.0"/>
<text x="180.0" y="700.0">LSFT</text>
<text x="180.0" y="719.0" class="small">sticky</text>
<rect rx="6.0" ry="6.0" x="212.0" y="674.0" width="56.0" height="52.0"/>
<text x="240.0" y="700.0">LGUI</text>
<text x="240.0" y="719.0" class="small">sticky</text>
<rect rx="6.0" ry="6.0" x="272.0" y="674.0" width="56.0" height="52.0"/>
<rect rx="6.0" ry="6.0" x="362.0" y="674.0" width="56.0" height="52.0"/>
<text x="390.0" y="700.0">
<tspan x="390.0" dy="-0.6em">CAP</tspan><tspan x="390.0" dy="1.2em">WRD</tspan></text>
<rect rx="6.0" ry="6.0" x="422.0" y="674.0" width="56.0" height="52.0"/>
<text x="450.0" y="700.0">LEFT</text>
<rect rx="6.0" ry="6.0" x="482.0" y="674.0" width="56.0" height="52.0"/>
<text x="510.0" y="700.0">DOWN</text>
<rect rx="6.0" ry="6.0" x="542.0" y="674.0" width="56.0" height="52.0"/>
<text x="570.0" y="700.0">UP</text>
<rect rx="6.0" ry="6.0" x="602.0" y="674.0" width="56.0" height="52.0"/>
<text x="630.0" y="700.0">RGHT</text>
<rect rx="6.0" ry="6.0" x="32.0" y="730.0" width="56.0" height="52.0"/>
<rect rx="6.0" ry="6.0" x="92.0" y="730.0" width="56.0" height="52.0"/>
<rect rx="6.0" ry="6.0" x="152.0" y="730.0" width="56.0" height="52.0"/>
<rect rx="6.0" ry="6.0" x="212.0" y="730.0" width="56.0" height="52.0"/>
<rect rx="6.0" ry="6.0" x="272.0" y="730.0" width="56.0" height="52.0"/>
<rect rx="6.0" ry="6.0" x="362.0" y="730.0" width="56.0" height="52.0"/>
<text x="390.0" y="756.0">INS</text>
<rect rx="6.0" ry="6.0" x="422.0" y="730.0" width="56.0" height="52.0"/>
<text x="450.0" y="756.0">HOME</text>
<rect rx="6.0" ry="6.0" x="482.0" y="730.0" width="56.0" height="52.0"/>
<text x="510.0" y="756.0">PGDN</text>
<rect rx="6.0" ry="6.0" x="542.0" y="730.0" width="56.0" height="52.0"/>
<text x="570.0" y="756.0">PGUP</text>
<rect rx="6.0" ry="6.0" x="602.0" y="730.0" width="56.0" height="52.0"/>
<text x="630.0" y="756.0">END</text>
<rect rx="6.0" ry="6.0" x="152.0" y="786.0" width="56.0" height="52.0"/>
<rect rx="6.0" ry="6.0" x="212.0" y="786.0" width="56.0" height="52.0" class="held"/>
<rect rx="6.0" ry="6.0" x="272.0" y="786.0" width="56.0" height="52.0"/>
<text x="300.0" y="812.0">FUN</text>
<rect rx="6.0" ry="6.0" x="362.0" y="786.0" width="56.0" height="52.0"/>
<text x="390.0" y="812.0">ENT</text>
<rect rx="6.0" ry="6.0" x="422.0" y="786.0" width="56.0" height="52.0"/>
<text x="450.0" y="812.0">RPT</text>
<rect rx="6.0" ry="6.0" x="482.0" y="786.0" width="56.0" height="52.0"/>
<text x="30.0" y="868.0" class="label">NUM:</text>
<rect rx="6.0" ry="6.0" x="32.0" y="898.0" width="56.0" height="52.0"/>
<rect rx="6.0" ry="6.0" x="92.0" y="898.0" width="56.0" height="52.0"/>
<rect rx="6.0" ry="6.0" x="152.0" y="898.0" width="56.0" height="52.0"/>
<rect rx="6.0" ry="6.0" x="212.0" y="898.0" width="56.0" height="52.0"/>
<rect rx="6.0" ry="6.0" x="272.0" y="898.0" width="56.0" height="52.0"/>
<rect rx="6.0" ry="6.0" x="362.0" y="898.0" width="56.0" height="52.0"/>
<rect rx="6.0" ry="6.0" x="422.0" y="898.0" width="56.0" height="52.0"/>
<text x="450.0" y="924.0">7</text>
<rect rx="6.0" ry="6.0" x="482.0" y="898.0" width="56.0" height="52.0"/>
<text x="510.0" y="924.0">8</text>
<rect rx="6.0" ry="6.0" x="542.0" y="898.0" width="56.0" height="52.0"/>
<text x="570.0" y="924.0">9</text>
<rect rx="6.0" ry="6.0" x="602.0" y="898.0" width="56.0" height="52.0"/>
<rect rx="6.0" ry="6.0" x="32.0" y="954.0" width="56.0" height="52.0"/>
<text x="60.0" y="980.0">LCTL</text>
<text x="60.0" y="999.0" class="small">sticky</text>
<rect rx="6.0" ry="6.0" x="92.0" y="954.0" width="56.0" height="52.0"/>
<text x="120.0" y="980.0">LALT</text>
<text x="120.0" y="999.0" class="small">sticky</text>
<rect rx="6.0" ry="6.0" x="152.0" y="954.0" width="56.0" height="52.0"/>
<text x="180.0" y="980.0">LSFT</text>
<text x="180.0" y="999.0" class="small">sticky</text>
<rect rx="6.0" ry="6.0" x="212.0" y="954.0" width="56.0" height="52.0"/>
<text x="240.0" y="980.0">LGUI</text>
<text x="240.0" y="999.0" class="small">sticky</text>
<rect rx="6.0" ry="6.0" x="272.0" y="954.0" width="56.0" height="52.0"/>
<rect rx="6.0" ry="6.0" x="362.0" y="954.0" width="56.0" height="52.0"/>
<rect rx="6.0" ry="6.0" x="422.0" y="954.0" width="56.0" height="52.0"/>
<text x="450.0" y="980.0">4</text>
<rect rx="6.0" ry="6.0" x="482.0" y="954.0" width="56.0" height="52.0"/>
<text x="510.0" y="980.0">5</text>
<rect rx="6.0" ry="6.0" x="542.0" y="954.0" width="56.0" height="52.0"/>
<text x="570.0" y="980.0">6</text>
<rect rx="6.0" ry="6.0" x="602.0" y="954.0" width="56.0" height="52.0"/>
<text x="630.0" y="980.0">.</text>
<rect rx="6.0" ry="6.0" x="32.0" y="1010.0" width="56.0" height="52.0"/>
<rect rx="6.0" ry="6.0" x="92.0" y="1010.0" width="56.0" height="52.0"/>
<rect rx="6.0" ry="6.0" x="152.0" y="1010.0" width="56.0" height="52.0"/>
<rect rx="6.0" ry="6.0" x="212.0" y="1010.0" width="56.0" height="52.0"/>
<rect rx="6.0" ry="6.0" x="272.0" y="1010.0" width="56.0" height="52.0"/>
<rect rx="6.0" ry="6.0" x="362.0" y="1010.0" width="56.0" height="52.0"/>
<rect rx="6.0" ry="6.0" x="422.0" y="1010.0" width="56.0" height="52.0"/>
<text x="450.0" y="1036.0">1</text>
<rect rx="6.0" ry="6.0" x="482.0" y="1010.0" width="56.0" height="52.0"/>
<text x="510.0" y="1036.0">2</text>
<rect rx="6.0" ry="6.0" x="542.0" y="1010.0" width="56.0" height="52.0"/>
<text x="570.0" y="1036.0">3</text>
<rect rx="6.0" ry="6.0" x="602.0" y="1010.0" width="56.0" height="52.0"/>
<rect rx="6.0" ry="6.0" x="152.0" y="1066.0" width="56.0" height="52.0"/>
<rect rx="6.0" ry="6.0" x="212.0" y="1066.0" width="56.0" height="52.0"/>
<text x="240.0" y="1092.0">FUN</text>
<rect rx="6.0" ry="6.0" x="272.0" y="1066.0" width="56.0" height="52.0" class="held"/>
<rect rx="6.0" ry="6.0" x="362.0" y="1066.0" width="56.0" height="52.0"/>
<text x="390.0" y="1092.0">.</text>
<rect rx="6.0" ry="6.0" x="422.0" y="1066.0" width="56.0" height="52.0"/>
<text x="450.0" y="1092.0">0</text>
<rect rx="6.0" ry="6.0" x="482.0" y="1066.0" width="56.0" height="52.0"/>
<text x="30.0" y="1148.0" class="label">FUN:</text>
<rect rx="6.0" ry="6.0" x="32.0" y="1178.0" width="56.0" height="52.0"/>
<rect rx="6.0" ry="6.0" x="92.0" y="1178.0" width="56.0" height="52.0"/>
<rect rx="6.0" ry="6.0" x="152.0" y="1178.0" width="56.0" height="52.0"/>
<rect rx="6.0" ry="6.0" x="212.0" y="1178.0" width="56.0" height="52.0"/>
<rect rx="6.0" ry="6.0" x="272.0" y="1178.0" width="56.0" height="52.0"/>
<rect rx="6.0" ry="6.0" x="362.0" y="1178.0" width="56.0" height="52.0"/>
<text x="390.0" y="1204.0">F12</text>
<rect rx="6.0" ry="6.0" x="422.0" y="1178.0" width="56.0" height="52.0"/>
<text x="450.0" y="1204.0">F7</text>
<rect rx="6.0" ry="6.0" x="482.0" y="1178.0" width="56.0" height="52.0"/>
<text x="510.0" y="1204.0">F8</text>
<rect rx="6.0" ry="6.0" x="542.0" y="1178.0" width="56.0" height="52.0"/>
<text x="570.0" y="1204.0">F9</text>
<rect rx="6.0" ry="6.0" x="602.0" y="1178.0" width="56.0" height="52.0"/>
<text x="630.0" y="1204.0">F15</text>
<rect rx="6.0" ry="6.0" x="32.0" y="1234.0" width="56.0" height="52.0"/>
<text x="60.0" y="1260.0">LCTL</text>
<text x="60.0" y="1279.0" class="small">sticky</text>
<rect rx="6.0" ry="6.0" x="92.0" y="1234.0" width="56.0" height="52.0"/>
<text x="120.0" y="1260.0">LALT</text>
<text x="120.0" y="1279.0" class="small">sticky</text>
<rect rx="6.0" ry="6.0" x="152.0" y="1234.0" width="56.0" height="52.0"/>
<text x="180.0" y="1260.0">LSFT</text>
<text x="180.0" y="1279.0" class="small">sticky</text>
<rect rx="6.0" ry="6.0" x="212.0" y="1234.0" width="56.0" height="52.0"/>
<text x="240.0" y="1260.0">LGUI</text>
<text x="240.0" y="1279.0" class="small">sticky</text>
<rect rx="6.0" ry="6.0" x="272.0" y="1234.0" width="56.0" height="52.0"/>
<rect rx="6.0" ry="6.0" x="362.0" y="1234.0" width="56.0" height="52.0"/>
<text x="390.0" y="1260.0">F11</text>
<rect rx="6.0" ry="6.0" x="422.0" y="1234.0" width="56.0" height="52.0"/>
<text x="450.0" y="1260.0">F4</text>
<rect rx="6.0" ry="6.0" x="482.0" y="1234.0" width="56.0" height="52.0"/>
<text x="510.0" y="1260.0">F5</text>
<rect rx="6.0" ry="6.0" x="542.0" y="1234.0" width="56.0" height="52.0"/>
<text x="570.0" y="1260.0">F6</text>
<rect rx="6.0" ry="6.0" x="602.0" y="1234.0" width="56.0" height="52.0"/>
<text x="630.0" y="1260.0">F14</text>
<rect rx="6.0" ry="6.0" x="32.0" y="1290.0" width="56.0" height="52.0"/>
<rect rx="6.0" ry="6.0" x="92.0" y="1290.0" width="56.0" height="52.0"/>
<rect rx="6.0" ry="6.0" x="152.0" y="1290.0" width="56.0" height="52.0"/>
<rect rx="6.0" ry="6.0" x="212.0" y="1290.0" width="56.0" height="52.0"/>
<rect rx="6.0" ry="6.0" x="272.0" y="1290.0" width="56.0" height="52.0"/>
<rect rx="6.0" ry="6.0" x="362.0" y="1290.0" width="56.0" height="52.0"/>
<text x="390.0" y="1316.0">F10</text>
<rect rx="6.0" ry="6.0" x="422.0" y="1290.0" width="56.0" height="52.0"/>
<text x="450.0" y="1316.0">F1</text>
<rect rx="6.0" ry="6.0" x="482.0" y="1290.0" width="56.0" height="52.0"/>
<text x="510.0" y="1316.0">F2</text>
<rect rx="6.0" ry="6.0" x="542.0" y="1290.0" width="56.0" height="52.0"/>
<text x="570.0" y="1316.0">F3</text>
<rect rx="6.0" ry="6.0" x="602.0" y="1290.0" width="56.0" height="52.0"/>
<text x="630.0" y="1316.0">F13</text>
<rect rx="6.0" ry="6.0" x="152.0" y="1346.0" width="56.0" height="52.0"/>
<text x="180.0" y="1372.0">
<tspan x="180.0" dy="-0.6em">QK</tspan><tspan x="180.0" dy="1.2em">BOOT</tspan></text>
<rect rx="6.0" ry="6.0" x="212.0" y="1346.0" width="56.0" height="52.0" class="held"/>
<rect rx="6.0" ry="6.0" x="272.0" y="1346.0" width="56.0" height="52.0" class="held"/>
<rect rx="6.0" ry="6.0" x="362.0" y="1346.0" width="56.0" height="52.0"/>
<rect rx="6.0" ry="6.0" x="422.0" y="1346.0" width="56.0" height="52.0"/>
<rect rx="6.0" ry="6.0" x="482.0" y="1346.0" width="56.0" height="52.0"/>
<text x="510.0" y="1372.0">
<tspan x="510.0" dy="-0.6em">QK</tspan><tspan x="510.0" dy="1.2em">BOOT</tspan></text>
<text x="30.0" y="1428.0" class="label">IDE:</text>
<rect rx="6.0" ry="6.0" x="32.0" y="1458.0" width="56.0" height="52.0"/>
<rect rx="6.0" ry="6.0" x="92.0" y="1458.0" width="56.0" height="52.0"/>
<rect rx="6.0" ry="6.0" x="152.0" y="1458.0" width="56.0" height="52.0"/>
<rect rx="6.0" ry="6.0" x="212.0" y="1458.0" width="56.0" height="52.0"/>
<rect rx="6.0" ry="6.0" x="272.0" y="1458.0" width="56.0" height="52.0"/>
<rect rx="6.0" ry="6.0" x="362.0" y="1458.0" width="56.0" height="52.0"/>
<rect rx="6.0" ry="6.0" x="422.0" y="1458.0" width="56.0" height="52.0"/>
<text x="450.0" y="1484.0">A</text>
<rect rx="6.0" ry="6.0" x="482.0" y="1458.0" width="56.0" height="52.0"/>
<text x="510.0" y="1484.0">S</text>
<rect rx="6.0" ry="6.0" x="542.0" y="1458.0" width="56.0" height="52.0"/>
<text x="570.0" y="1484.0">W</text>
<rect rx="6.0" ry="6.0" x="602.0" y="1458.0" width="56.0" height="52.0"/>
<text x="630.0" y="1484.0">D</text>
<rect rx="6.0" ry="6.0" x="32.0" y="1514.0" width="56.0" height="52.0"/>
<text x="60.0" y="1540.0">LCTL</text>
<text x="60.0" y="1559.0" class="small">sticky</text>
<rect rx="6.0" ry="6.0" x="92.0" y="1514.0" width="56.0" height="52.0"/>
<text x="120.0" y="1540.0">
<tspan x="120.0" dy="-0.6em">CLS</tspan><tspan x="120.0" dy="1.2em">FUN</tspan></text>
<rect rx="6.0" ry="6.0" x="152.0" y="1514.0" width="56.0" height="52.0"/>
<text x="180.0" y="1540.0">
<tspan x="180.0" dy="-0.6em">FND</tspan><tspan x="180.0" dy="1.2em">USE</tspan></text>
<rect rx="6.0" ry="6.0" x="212.0" y="1514.0" width="56.0" height="52.0"/>
<text x="240.0" y="1540.0">RENAME</text>
<rect rx="6.0" ry="6.0" x="272.0" y="1514.0" width="56.0" height="52.0"/>
<text x="300.0" y="1540.0">
<tspan x="300.0" dy="-0.6em">BRK</tspan><tspan x="300.0" dy="1.2em">PT</tspan></text>
<rect rx="6.0" ry="6.0" x="362.0" y="1514.0" width="56.0" height="52.0"/>
<rect rx="6.0" ry="6.0" x="422.0" y="1514.0" width="56.0" height="52.0"/>
<text x="450.0" y="1540.0">H</text>
<rect rx="6.0" ry="6.0" x="482.0" y="1514.0" width="56.0" height="52.0"/>
<text x="510.0" y="1540.0">J</text>
<rect rx="6.0" ry="6.0" x="542.0" y="1514.0" width="56.0" height="52.0"/>
<text x="570.0" y="1540.0">K</text>
<rect rx="6.0" ry="6.0" x="602.0" y="1514.0" width="56.0" height="52.0"/>
<text x="630.0" y="1540.0">L</text>
<rect rx="6.0" ry="6.0" x="32.0" y="1570.0" width="56.0" height="52.0"/>
<text x="60.0" y="1596.0">
<tspan x="60.0" dy="-0.6em">DBG</tspan><tspan x="60.0" dy="1.2em">OVR</tspan></text>
<rect rx="6.0" ry="6.0" x="92.0" y="1570.0" width="56.0" height="52.0"/>
<text x="120.0" y="1596.0">
<tspan x="120.0" dy="-0.6em">DBG</tspan><tspan x="120.0" dy="1.2em">IN</tspan></text>
<rect rx="6.0" ry="6.0" x="152.0" y="1570.0" width="56.0" height="52.0"/>
<text x="180.0" y="1596.0">
<tspan x="180.0" dy="-0.6em">DBG</tspan><tspan x="180.0" dy="1.2em">OUT</tspan></text>
<rect rx="6.0" ry="6.0" x="212.0" y="1570.0" width="56.0" height="52.0"/>
<text x="240.0" y="1596.0">
<tspan x="240.0" dy="-0.6em">DBG</tspan><tspan x="240.0" dy="1.2em">RES</tspan></text>
<rect rx="6.0" ry="6.0" x="272.0" y="1570.0" width="56.0" height="52.0"/>
<text x="300.0" y="1596.0">
<tspan x="300.0" dy="-0.6em">DBG</tspan><tspan x="300.0" dy="1.2em">EVL</tspan></text>
<rect rx="6.0" ry="6.0" x="362.0" y="1570.0" width="56.0" height="52.0"/>
<rect rx="6.0" ry="6.0" x="422.0" y="1570.0" width="56.0" height="52.0"/>
<rect rx="6.0" ry="6.0" x="482.0" y="1570.0" width="56.0" height="52.0"/>
<rect rx="6.0" ry="6.0" x="542.0" y="1570.0" width="56.0" height="52.0"/>
<rect rx="6.0" ry="6.0" x="602.0" y="1570.0" width="56.0" height="52.0"/>
<rect rx="6.0" ry="6.0" x="152.0" y="1626.0" width="56.0" height="52.0"/>
<text x="180.0" y="1652.0">
<tspan x="180.0" dy="-0.6em">DM</tspan><tspan x="180.0" dy="1.2em">REC1</tspan></text>
<rect rx="6.0" ry="6.0" x="212.0" y="1626.0" width="56.0" height="52.0"/>
<text x="240.0" y="1652.0">
<tspan x="240.0" dy="-0.6em">DM</tspan><tspan x="240.0" dy="1.2em">RSTP</tspan></text>
<rect rx="6.0" ry="6.0" x="272.0" y="1626.0" width="56.0" height="52.0"/>
<text x="300.0" y="1652.0">
<tspan x="300.0" dy="-0.6em">DM</tspan><tspan x="300.0" dy="1.2em">PLY1</tspan></text>
<rect rx="6.0" ry="6.0" x="362.0" y="1626.0" width="56.0" height="52.0"/>
<rect rx="6.0" ry="6.0" x="422.0" y="1626.0" width="56.0" height="52.0"/>
<text x="450.0" y="1652.0">MED</text>
<rect rx="6.0" ry="6.0" x="482.0" y="1626.0" width="56.0" height="52.0" class="held"/>
<text x="30.0" y="1708.0" class="label">MOU:</text>
<rect rx="6.0" ry="6.0" x="32.0" y="1738.0" width="56.0" height="52.0"/>
<rect rx="6.0" ry="6.0" x="92.0" y="1738.0" width="56.0" height="52.0"/>
<rect rx="6.0" ry="6.0" x="152.0" y="1738.0" width="56.0" height="52.0"/>
<rect rx="6.0" ry="6.0" x="212.0" y="1738.0" width="56.0" height="52.0"/>
<rect rx="6.0" ry="6.0" x="272.0" y="1738.0" width="56.0" height="52.0"/>
<rect rx="6.0" ry="6.0" x="362.0" y="1738.0" width="56.0" height="52.0"/>
<rect rx="6.0" ry="6.0" x="422.0" y="1738.0" width="56.0" height="52.0"/>
<rect rx="6.0" ry="6.0" x="482.0" y="1738.0" width="56.0" height="52.0"/>
<rect rx="6.0" ry="6.0" x="542.0" y="1738.0" width="56.0" height="52.0"/>
<rect rx="6.0" ry="6.0" x="602.0" y="1738.0" width="56.0" height="52.0"/>
<rect rx="6.0" ry="6.0" x="32.0" y="1794.0" width="56.0" height="52.0"/>
<text x="60.0" y="1820.0">LCTL</text>
<text x="60.0" y="1839.0" class="small">sticky</text>
<rect rx="6.0" ry="6.0" x="92.0" y="1794.0" width="56.0" height="52.0"/>
<text x="120.0" y="1820.0">LALT</text>
<text x="120.0" y="1839.0" class="small">sticky</text>
<rect rx="6.0" ry="6.0" x="152.0" y="1794.0" width="56.0" height="52.0"/>
<text x="180.0" y="1820.0">LSFT</text>
<text x="180.0" y="1839.0" class="small">sticky</text>
<rect rx="6.0" ry="6.0" x="212.0" y="1794.0" width="56.0" height="52.0"/>
<text x="240.0" y="1820.0">LGUI</text>
<text x="240.0" y="1839.0" class="small">sticky</text>
<rect rx="6.0" ry="6.0" x="272.0" y="1794.0" width="56.0" height="52.0"/>
<rect rx="6.0" ry="6.0" x="362.0" y="1794.0" width="56.0" height="52.0"/>
<text x="390.0" y="1820.0">F16</text>
<rect rx="6.0" ry="6.0" x="422.0" y="1794.0" width="56.0" height="52.0"/>
<text x="450.0" y="1820.0">
<tspan x="450.0" dy="-0.6em">MS</tspan><tspan x="450.0" dy="1.2em">L</tspan></text>
<rect rx="6.0" ry="6.0" x="482.0" y="1794.0" width="56.0" height="52.0"/>
<text x="510.0" y="1820.0">
<tspan x="510.0" dy="-0.6em">MS</tspan><tspan x="510.0" dy="1.2em">D</tspan></text>
<rect rx="6.0" ry="6.0" x="542.0" y="1794.0" width="56.0" height="52.0"/>
<text x="570.0" y="1820.0">
<tspan x="570.0" dy="-0.6em">MS</tspan><tspan x="570.0" dy="1.2em">U</tspan></text>
<rect rx="6.0" ry="6.0" x="602.0" y="1794.0" width="56.0" height="52.0"/>
<text x="630.0" y="1820.0">
<tspan x="630.0" dy="-0.6em">MS</tspan><tspan x="630.0" dy="1.2em">R</tspan></text>
<rect rx="6.0" ry="6.0" x="32.0" y="1850.0" width="56.0" height="52.0"/>
<rect rx="6.0" ry="6.0" x="92.0" y="1850.0" width="56.0" height="52.0"/>
<rect rx="6.0" ry="6.0" x="152.0" y="1850.0" width="56.0" height="52.0"/>
<rect rx="6.0" ry="6.0" x="212.0" y="1850.0" width="56.0" height="52.0"/>
<rect rx="6.0" ry="6.0" x="272.0" y="1850.0" width="56.0" height="52.0"/>
<rect rx="6.0" ry="6.0" x="362.0" y="1850.0" width="56.0" height="52.0"/>
<rect rx="6.0" ry="6.0" x="422.0" y="1850.0" width="56.0" height="52.0"/>
<text x="450.0" y="1876.0">
<tspan x="450.0" dy="-0.6em">WH</tspan><tspan x="450.0" dy="1.2em">L</tspan></text>
<rect rx="6.0" ry="6.0" x="482.0" y="1850.0" width="56.0" height="52.0"/>
<text x="510.0" y="1876.0">
<tspan x="510.0" dy="-0.6em">WH</tspan><tspan x="510.0" dy="1.2em">D</tspan></text>
<rect rx="6.0" ry="6.0" x="542.0" y="1850.0" width="56.0" height="52.0"/>
<text x="570.0" y="1876.0">
<tspan x="570.0" dy="-0.6em">WH</tspan><tspan x="570.0" dy="1.2em">U</tspan></text>
<rect rx="6.0" ry="6.0" x="602.0" y="1850.0" width="56.0" height="52.0"/>
<text x="630.0" y="1876.0">
<tspan x="630.0" dy="-0.6em">WH</tspan><tspan x="630.0" dy="1.2em">R</tspan></text>
<rect rx="6.0" ry="6.0" x="152.0" y="1906.0" width="56.0" height="52.0" class="held"/>
<rect rx="6.0" ry="6.0" x="212.0" y="1906.0" width="56.0" height="52.0"/>
<rect rx="6.0" ry="6.0" x="272.0" y="1906.0" width="56.0" height="52.0"/>
<rect rx="6.0" ry="6.0" x="362.0" y="1906.0" width="56.0" height="52.0"/>
<rect rx="6.0" ry="6.0" x="422.0" y="1906.0" width="56.0" height="52.0"/>
<text x="450.0" y="1932.0">BTN1</text>
<rect rx="6.0" ry="6.0" x="482.0" y="1906.0" width="56.0" height="52.0"/>
<text x="510.0" y="1932.0">BTN2</text>
<text x="30.0" y="1988.0" class="label">MED:</text>
<rect rx="6.0" ry="6.0" x="32.0" y="2018.0" width="56.0" height="52.0"/>
<text x="60.0" y="2044.0">
<tspan x="60.0" dy="-0.6em">RGB</tspan><tspan x="60.0" dy="1.2em">VAI</tspan></text>
<rect rx="6.0" ry="6.0" x="92.0" y="2018.0" width="56.0" height="52.0"/>
<text x="120.0" y="2044.0">
<tspan x="120.0" dy="-0.6em">RGB</tspan><tspan x="120.0" dy="1.2em">SAI</tspan></text>
<rect rx="6.0" ry="6.0" x="152.0" y="2018.0" width="56.0" height="52.0"/>
<text x="180.0" y="2044.0">
<tspan x="180.0" dy="-0.6em">RGB</tspan><tspan x="180.0" dy="1.2em">HUI</tspan></text>
<rect rx="6.0" ry="6.0" x="212.0" y="2018.0" width="56.0" height="52.0"/>
<text x="240.0" y="2044.0">
<tspan x="240.0" dy="-0.6em">RGB</tspan><tspan x="240.0" dy="1.2em">MOD</tspan></text>
<rect rx="6.0" ry="6.0" x="272.0" y="2018.0" width="56.0" height="52.0"/>
<text x="300.0" y="2044.0">
<tspan x="300.0" dy="-0.6em">RGB</tspan><tspan x="300.0" dy="1.2em">TOG</tspan></text>
<rect rx="6.0" ry="6.0" x="362.0" y="2018.0" width="56.0" height="52.0"/>
<rect rx="6.0" ry="6.0" x="422.0" y="2018.0" width="56.0" height="52.0"/>
<rect rx="6.0" ry="6.0" x="482.0" y="2018.0" width="56.0" height="52.0"/>
<rect rx="6.0" ry="6.0" x="542.0" y="2018.0" width="56.0" height="52.0"/>
<rect rx="6.0" ry="6.0" x="602.0" y="2018.0" width="56.0" height="52.0"/>
<text x="630.0" y="2044.0">
<tspan x="630.0" dy="-0.6em">QK</tspan><tspan x="630.0" dy="1.2em">BOOT</tspan></text>
<rect rx="6.0" ry="6.0" x="32.0" y="2074.0" width="56.0" height="52.0"/>
<text x="60.0" y="2100.0">MPRV</text>
<rect rx="6.0" ry="6.0" x="92.0" y="2074.0" width="56.0" height="52.0"/>
<text x="120.0" y="2100.0">VOLD</text>
<rect rx="6.0" ry="6.0" x="152.0" y="2074.0" width="56.0" height="52.0"/>
<text x="180.0" y="2100.0">VOLU</text>
<rect rx="6.0" ry="6.0" x="212.0" y="2074.0" width="56.0" height="52.0"/>
<text x="240.0" y="2100.0">MNXT</text>
<rect rx="6.0" ry="6.0" x="272.0" y="2074.0" width="56.0" height="52.0"/>
<rect rx="6.0" ry="6.0" x="362.0" y="2074.0" width="56.0" height="52.0"/>
<rect rx="6.0" ry="6.0" x="422.0" y="2074.0" width="56.0" height="52.0"/>
<rect rx="6.0" ry="6.0" x="482.0" y="2074.0" width="56.0" height="52.0"/>
<rect rx="6.0" ry="6.0" x="542.0" y="2074.0" width="56.0" height="52.0"/>
<rect rx="6.0" ry="6.0" x="602.0" y="2074.0" width="56.0" height="52.0"/>
<rect rx="6.0" ry="6.0" x="32.0" y="2130.0" width="56.0" height="52.0"/>
<rect rx="6.0" ry="6.0" x="92.0" y="2130.0" width="56.0" height="52.0"/>
<rect rx="6.0" ry="6.0" x="152.0" y="2130.0" width="56.0" height="52.0"/>
<rect rx="6.0" ry="6.0" x="212.0" y="2130.0" width="56.0" height="52.0"/>
<rect rx="6.0" ry="6.0" x="272.0" y="2130.0" width="56.0" height="52.0"/>
<rect rx="6.0" ry="6.0" x="362.0" y="2130.0" width="56.0" height="52.0"/>
<rect rx="6.0" ry="6.0" x="422.0" y="2130.0" width="56.0" height="52.0"/>
<rect rx="6.0" ry="6.0" x="482.0" y="2130.0" width="56.0" height="52.0"/>
<rect rx="6.0" ry="6.0" x="542.0" y="2130.0" width="56.0" height="52.0"/>
<rect rx="6.0" ry="6.0" x="602.0" y="2130.0" width="56.0" height="52.0"/>
<rect rx="6.0" ry="6.0" x="152.0" y="2186.0" width="56.0" height="52.0"/>
<rect rx="6.0" ry="6.0" x="212.0" y="2186.0" width="56.0" height="52.0"/>
<text x="240.0" y="2212.0">MPLY</text>
<rect rx="6.0" ry="6.0" x="272.0" y="2186.0" width="56.0" height="52.0"/>
<text x="300.0" y="2212.0">MUTE</text>
<rect rx="6.0" ry="6.0" x="362.0" y="2186.0" width="56.0" height="52.0"/>
<rect rx="6.0" ry="6.0" x="422.0" y="2186.0" width="56.0" height="52.0" class="held"/>
<rect rx="6.0" ry="6.0" x="482.0" y="2186.0" width="56.0" height="52.0" class="held"/>
</svg>
